<?xml version="1.0" encoding="utf-8"?>
<!-- Generator: Adobe Illustrator 26.3.1, SVG Export Plug-In . SVG Version: 6.00 Build 0)  -->
<svg version="1.1" id="Layer_1" xmlns="http://www.w3.org/2000/svg" xmlns:xlink="http://www.w3.org/1999/xlink" x="0px" y="0px"
	 viewBox="0 0 200 200" style="enable-background:new 0 0 200 200;" xml:space="preserve">
<style type="text/css">
	.st0{fill:#FFFFFF;}
	.st1{fill:#006858;}
	.st2{opacity:0.4;fill:#006858;}
	.st3{fill:#242424;}
</style>
<circle class="st0" cx="100" cy="100" r="96.4"/>
<g>
	<path class="st3" d="M114.9,147.6c-0.9-0.9-1.5-1.4-2.1-1.9c-18.5-18.5-37-36.9-55.4-55.4c-4-4-4-8.3,0-12.3
		c9.2-9.2,18.4-18.4,27.7-27.6c1.9-1.9,3-1.8,4.7,0.2c2.9,3.6,4,7.6,2.9,12.1c-0.8,3-0.2,5.4,2.2,7.4c1.5,1.3,2.8,2.9,4.5,4
		c5.9,4,12.3,4.5,18.9,1.7c2.6-1.1,3.4-0.9,4.5,1.7c5.1,11.9,10.2,23.8,15.2,35.8c1.3,3.1,3.3,4.5,6.7,4.5
		c9.9,0.1,17.5,7.8,17.6,17.7c0,2,0.1,4-0.1,6c-0.9,6.4-5.9,10.8-12.5,10.8c-5.2,0.1-10.3,0-15.5,0c-23.4,0-46.9,0-70.3,0
		c-0.4,0-0.8,0-1.1,0c-2,0-3.1-0.8-3.1-2.3c0-1.5,1-2.2,3.1-2.2c16.8,0,33.5,0,50.3,0C113.2,147.6,113.8,147.6,114.9,147.6z
		 M80.9,93.1c0.4,0.4,0.6,0.7,0.9,0.9c12.9,12.9,25.8,25.8,38.7,38.7c3.2,3.2,7.1,4.8,11.6,4.7c7.9,0,15.7,0,23.6,0
		c0.5,0,1-0.1,1.5-0.1c0.9-8.5-4.9-15.2-13.3-15.3c-5,0-8.5-2.3-10.4-7c-0.5-1.1-1-2.3-1.5-3.5c-1.4,0.6-2.7,1.2-4,1.7
		c-1.5,0.6-2.7,0.1-3.2-1.2c-0.5-1.2,0.1-2.3,1.5-2.9c1.3-0.6,2.5-1.1,3.9-1.7c-0.9-2.2-1.8-4.2-2.7-6.3c-1.3,0.5-2.4,1-3.5,1.5
		c-1.9,0.8-3.1,0.4-3.7-1c-0.5-1.3,0.1-2.4,1.9-3.2c1.2-0.5,2.3-1,3.6-1.6c-0.9-2.2-1.8-4.2-2.6-6.1c-0.3,0-0.4,0-0.5,0
		c-1,0.4-2,0.8-3,1.2c-1.9,0.8-3.1,0.5-3.7-0.9c-0.6-1.4,0.1-2.5,1.9-3.3c1.1-0.5,2.2-1,3.5-1.5c-0.9-2.1-1.7-4.1-2.6-6.1
		c-0.7,0.2-1.3,0.4-1.8,0.6c-3.6,1.1-7.3,1.3-11,0.7c-6-1-10.5-4.3-14.7-8.5c-3.2-3.3-4.5-6.8-3.2-11.3c0.7-2.4,0.4-4.8-0.9-6.8
		c-3.6,3.6-7.2,7.2-10.9,10.9c1.6,1.5,3.3,3,4.9,4.7c3.2,3.2,4.7,7.1,4.6,11.7C85.5,86.4,83.9,89.9,80.9,93.1z M156.9,142
		c-0.7,0-1.3,0-1.9,0c-7.3,0-14.6-0.1-22,0c-6.5,0.1-11.8-2.1-16.3-6.7c-17.9-18-35.8-35.9-53.8-53.8c-0.4-0.4-0.7-0.9-1-1.4
		c-3.7,2.9-3.8,4.5-0.8,7.5C66.5,93,72,98.5,77.4,103.9c12.9,12.9,25.8,25.8,38.7,38.7c2.7,2.7,5.8,4.7,9.6,4.8
		c8.2,0.2,16.4,0.2,24.5,0.1C153.6,147.4,156.1,145.1,156.9,142z M65.1,76.9c4.2,4.3,8.5,8.5,12.7,12.8c4.1-3.9,4.7-10.3,1.1-14.7
		c-1.8-2.2-4.1-3.9-6.1-5.7C70.3,71.6,67.7,74.3,65.1,76.9z"/>
	<path class="st3" d="M70,129.6c-4.2,0-8.4,0-12.6,0c-1.9,0-2.9-0.8-2.8-2.3c0-1.4,1-2.2,2.8-2.2c8.4,0,16.8,0,25.2,0
		c1.9,0,2.9,0.9,2.8,2.3c0,1.4-1,2.2-2.8,2.2C78.4,129.6,74.2,129.6,70,129.6z"/>
	<path class="st3" d="M53.4,59.6c-2.5,0-4.9,0-7.4,0c-1.8,0-2.7-0.8-2.7-2.2c0-1.4,0.9-2.3,2.7-2.3c4.9,0,9.8,0,14.7,0
		c1.8,0,2.7,0.9,2.7,2.3c0,1.4-0.9,2.1-2.7,2.2C58.3,59.6,55.9,59.6,53.4,59.6z"/>
	<path class="st3" d="M50.2,97.2c2.2,0,4.4,0,6.6,0c1.5,0,2.5,0.9,2.5,2.2c0,1.3-1,2.3-2.5,2.3c-4.4,0-8.8,0-13.2,0
		c-1.6,0-2.6-1-2.5-2.3c0-1.3,1-2.1,2.5-2.2C45.8,97.2,48,97.2,50.2,97.2z"/>
</g>
</svg>
