<?xml version="1.0" encoding="utf-8"?>
<!-- Generator: Adobe Illustrator 26.3.1, SVG Export Plug-In . SVG Version: 6.00 Build 0)  -->
<svg version="1.1" id="Layer_1" xmlns="http://www.w3.org/2000/svg" xmlns:xlink="http://www.w3.org/1999/xlink" x="0px" y="0px"
	 viewBox="0 0 200 200" style="enable-background:new 0 0 200 200;" xml:space="preserve">
<style type="text/css">
	.st0{fill:#FFFFFF;}
	.st1{fill:#006858;}
	.st2{opacity:0.4;fill:#006858;}
	.st3{fill:#242424;}
</style>
<circle class="st0" cx="100" cy="100" r="96.4"/>
<g>
	<path class="st3" d="M39.8,163.2c-0.4-0.2-0.9-0.3-1.3-0.5c-3.5-1.3-5.7-5-5.2-8.6c0.6-3.9,3.8-6.8,7.7-6.9c3.5,0,7,0,10.5,0
		c1.4,0,2.3,0.7,2.4,1.9c0,1.2-0.9,2-2.4,2c-3.3,0-6.6,0-9.8,0c-2.7,0-4.5,1.7-4.5,4.1c0,2.4,1.8,4.1,4.5,4.1c39.2,0,78.3,0,117.5,0
		c2.1,0,3.6-1,4.2-2.9c0.6-1.7,0-3.5-1.5-4.5c-0.6-0.4-1.3-0.6-2-0.8c-0.5-0.1-1,0-1.6,0c-32.4,0-64.8,0-97.1,0
		c-0.5,0-1.1,0-1.6-0.1c-1.1-0.2-1.7-0.9-1.6-2c0.1-1.1,0.7-1.7,1.8-1.8c0.4,0,0.8,0,1.2,0c6.3,0,12.7,0,19,0c0.5,0,0.9,0,1.5,0
		c0-5.2,0-10.2,0-15.4c-2,0.6-3.9,1.2-5.8,1.7c-9.7,2.9-19.5,5.8-29.2,8.6c-5.2,1.5-9.9-1.5-10.6-6.7c-0.5-3.8,2-7.4,5.9-8.6
		c3.8-1.2,7.7-2.3,11.5-3.4c0.4-0.1,0.7-0.2,1.2-0.4c-1-3.4-2-6.6-2.9-9.9c-0.4-1.2-0.7-2.4-1.1-3.6c-0.9-3.3,0.8-6.5,4-7.5
		c3.2-1,6.5,0.7,7.5,4.1c1.2,4,2.4,8,3.6,12c0.1,0.5,0.3,1,0.5,1.6c2.1-0.6,4.1-1.2,6.1-1.8c4-1.2,8-2.4,12-3.6
		c0.6-0.2,1.2-0.6,1.7-1.1c5.1-6,12.8-8.3,20.4-5.9c0.5,0.2,1.1,0.2,1.6,0.1c7.2-2.1,14.5-4.3,21.7-6.4c0.2,0,0.3-0.1,0.6-0.3
		c-0.2-0.6-0.3-1.3-0.5-1.9c-1.1-3.8-2.3-7.6-3.4-11.4c-1-3.6,0.6-6.8,4-7.8c3.3-1,6.5,0.9,7.6,4.4c1.3,4.4,2.6,8.8,3.9,13.3
		c3.2-0.9,6.3-1.9,9.4-2.8c1.4-0.4,2.8-0.9,4.3-1.2c4.1-0.9,8.1,1.6,9.3,5.6c1.2,3.9-0.9,8.1-4.7,9.6c-1,0.4-2,0.7-3,0.9
		c-1.2,0.3-2.2-0.3-2.5-1.4c-0.3-1,0.2-2,1.3-2.4c0.6-0.2,1.2-0.4,1.9-0.6c2.6-0.8,3.9-2.8,3.2-5.1c-0.7-2.4-2.9-3.5-5.5-2.7
		c-11.6,3.4-23.2,6.9-34.8,10.3c-2.8,0.8-5.7,1.7-8.4,2.5c1.8,2.2,3.6,4.5,5.5,6.9c3.3-1,6.9-2,10.5-3.1c6.4-1.9,12.9-3.8,19.3-5.7
		c0.3-0.1,0.5-0.2,0.8-0.2c1.3-0.2,2.2,0.2,2.5,1.3c0.3,1-0.2,2-1.4,2.4c-2.2,0.7-4.4,1.3-6.6,2c-7.6,2.2-15.1,4.5-22.7,6.7
		c-0.4,0.1-0.8,0.3-1,0.3c0,8.9,0,17.6,0,26.5c3.9,0,7.4,0,11.4,0c-0.7-1.4-1.2-2.7-2-3.8c-0.7-1.1-1.7-2-2.6-3
		c-0.8-0.9-0.8-1.9,0-2.7c0.7-0.8,1.9-0.9,2.7-0.1c1.6,1.7,3.1,3.5,4.6,5.4c0.6-0.8,1.3-1.8,2-2.8c0.4-0.6,0.9-1.1,1.4-1.6
		c0.9-0.9,2.1-1,2.9-0.2c0.8,0.7,0.7,1.8,0,2.8c-1.2,1.7-2.4,3.4-3.5,5.2c-0.1,0.2-0.2,0.5-0.4,0.8c4.4,0,8.7,0,13.4,0
		c-0.7-1.6-1.2-3.1-1.9-4.5c-0.6-1.2-1.5-2.2-2.3-3.3c-0.8-1.1-0.7-2.2,0.2-2.9c0.8-0.7,2-0.6,2.8,0.3c0.8,0.9,1.6,2,2.4,3
		c0.5-1.2,0.9-2.4,1.5-3.5c0.6-1.1,1.4-2.2,2.2-3.2c0.8-1,2-1.1,2.9-0.4c0.9,0.7,0.9,1.9,0,3c-2.8,3.3-3.5,7.2-3.7,11.6
		c1,0,1.8,0,2.7,0c1.4,0,2.8,0,4.2,0c3.2,0.1,6,2.2,7.2,5.2c0.2,0.4,0.3,0.9,0.5,1.3c0,1,0,1.9,0,2.9c-0.5,1.1-1,2.3-1.7,3.3
		c-1.1,1.8-3,2.5-4.9,3.2C120.6,163.2,80.2,163.2,39.8,163.2z M115.2,147.1c0-0.2,0.1-0.4,0.1-0.6c0-7.4,0.2-14.8,0-22.1
		c-0.3-9.1-8.8-15.8-17.7-14c-7.1,1.4-12,7.4-12,14.9c0,6.9,0,13.7,0,20.6c0,0.4,0,0.8,0.1,1.2C95.5,147.1,105.3,147.1,115.2,147.1z
		 M82.2,119c0.1,0-0.1,0-0.2,0c-13.1,3.9-26.3,7.8-39.4,11.7c-2.3,0.7-3.5,2.9-2.8,5.1c0.7,2.2,2.9,3.4,5.2,2.7
		c11.8-3.5,23.7-7,35.5-10.5c0.8-0.2,0.9-0.6,1-1.4C81.7,124.1,82,121.5,82.2,119z M137.8,98.3c0-0.2,0.1-0.4,0-0.5
		c-1.3-4.3-2.6-8.7-3.9-13c-0.4-1.4-1.5-1.9-2.7-1.6c-1.1,0.4-1.6,1.4-1.2,2.8c0.7,2.4,1.4,4.7,2.1,7c0.6,2.1,1.3,4.2,1.9,6.4
		C135.4,99.1,136.6,98.7,137.8,98.3z M62.2,120.7c-1.4-4.6-2.6-9-4-13.3c-0.4-1.4-1.5-2.1-2.6-1.8c-1.2,0.3-1.8,1.5-1.4,2.9
		c0.7,2.6,1.5,5.2,2.3,7.8c0.5,1.8,1.1,3.7,1.7,5.6C59.6,121.5,60.8,121.1,62.2,120.7z"/>
	<path class="st3" d="M167.5,55.2c-0.2,0.6-0.3,1.2-0.5,1.7c-1.5,5.8-6.7,10.1-12.7,10.3c-5.1,0.1-10.2,0.1-15.3,0
		c-6-0.1-10.5-5.5-10-11.6c0.5-5.6,5.9-9.9,11.6-9.2c0.4,0,1-0.2,1.3-0.5c3.6-5.1,8.5-7.4,14.6-6.1c6,1.3,9.7,5.3,10.8,11.4
		c0,0.1,0.1,0.2,0.2,0.3C167.5,52.8,167.5,54,167.5,55.2z M146.5,63.3c0.9,0,1.7,0,2.6,0c2.4-0.1,4.9,0.1,7.1-0.5
		c4.5-1,7.4-5.2,7.3-9.8c-0.1-4.5-3.4-8.4-7.8-9.4c-4.6-1-9.1,1.2-11.1,5.4c-0.9,1.8-1.5,2.1-3.1,1.6c-2.7-0.9-5.1-0.3-7,1.8
		c-1.8,2-2.2,4.5-1.1,7c1.2,2.7,3.4,3.9,6.3,3.9C142,63.3,144.3,63.3,146.5,63.3z"/>
	<path class="st3" d="M58.6,80.4c-2.1,0-4.3,0.1-6.4,0c-5.4-0.3-9.7-4.3-10.7-9.7c-0.9-5.2,2-10.5,6.9-12.6
		c4.9-2.1,10.7-0.7,13.9,3.6c0.7,0.9,1.3,1.1,2.3,1.1c4.9-0.1,8.7,3.7,8.9,8.5c0.2,4.7-3.5,8.8-8.3,9.1C63,80.5,60.8,80.4,58.6,80.4
		C58.6,80.4,58.6,80.4,58.6,80.4z M58.7,76.5C58.7,76.5,58.7,76.5,58.7,76.5c2.1,0,4.2,0.1,6.3,0c3-0.2,5-2.8,4.5-5.8
		c-0.5-2.8-3.3-4.5-6.1-3.8c-2.1,0.5-2.4,0.4-3.4-1.5c-1.5-2.8-4.5-4.6-7.5-4.3c-4.3,0.4-7.2,3.8-7.1,8c0.1,4,3.3,7.2,7.5,7.4
		C54.8,76.6,56.7,76.5,58.7,76.5z"/>
	<path class="st3" d="M100.3,115.2c5.5,0,9.9,4.4,9.9,9.9c0,5.4-4.4,9.8-9.8,9.9c-5.5,0-10-4.4-10-9.8
		C90.4,119.7,94.9,115.2,100.3,115.2z M100.4,119.1c-3.3,0-5.9,2.6-6,5.9c-0.1,3.3,2.7,6,6,6c3.3,0,6-2.7,6-6
		C106.3,121.7,103.7,119.1,100.4,119.1z"/>
</g>
</svg>
