<?xml version="1.0" encoding="utf-8"?>
<!-- Generator: Adobe Illustrator 26.3.1, SVG Export Plug-In . SVG Version: 6.00 Build 0)  -->
<svg version="1.1" id="Layer_1" xmlns="http://www.w3.org/2000/svg" xmlns:xlink="http://www.w3.org/1999/xlink" x="0px" y="0px"
	 viewBox="0 0 377.8 71.6" style="enable-background:new 0 0 377.8 71.6;" xml:space="preserve">
<style type="text/css">
	.st0{fill:#006757;}
	.st1{fill-rule:evenodd;clip-rule:evenodd;fill:#006757;}
</style>
<g>
	<path class="st0" d="M297.6,8.6H297c-1.3-2.1-2.8-3.7-4.7-4.7c-1.9-1-4.2-1.5-6.8-1.5c-4.5,0-8,1.5-10.6,4.6s-3.8,7.3-3.8,12.7
		s1.3,9.7,4,12.9s6.2,4.8,10.7,4.8c2.3,0,4.5-0.5,6.5-1.4s4-2.4,5.8-4.4l0.6,0.3c-0.2,0.7-0.3,1.5-0.4,2.3s-0.2,1.6-0.2,2.4
		c-2.2,1.2-4.4,2.2-6.7,2.8c-2.2,0.6-4.5,0.9-6.9,0.9c-6.2,0-11.1-1.8-14.7-5.4c-3.5-3.6-5.3-8.6-5.3-14.8s1.9-11.1,5.6-14.7
		S279,0,285.4,0c2.3,0,4.5,0.2,6.8,0.7c2.2,0.5,4.6,1.3,6.9,2.3c-0.4,0.8-0.7,1.6-1,2.6C297.9,6.4,297.7,7.4,297.6,8.6L297.6,8.6z"
		/>
	<path class="st0" d="M305.1,39.3c0.2-2.9,0.4-5.9,0.5-9.2c0.1-3.2,0.2-6.6,0.2-10.2c0-4.1-0.1-7.7-0.2-10.8c-0.1-3.2-0.3-6-0.5-8.6
		c0.6,0.1,1.2,0.1,1.7,0.2c0.6,0,1.1,0.1,1.7,0.1c0.5,0,1.1,0,1.6-0.1c0.6,0,1.1-0.1,1.8-0.2c-0.2,2.4-0.4,5.1-0.5,8.1
		s-0.2,6.8-0.2,11.3c0,4,0.1,7.6,0.2,10.8c0.1,3.1,0.3,6,0.5,8.6c-0.5-0.1-1-0.2-1.5-0.2c-0.6,0-1.2-0.1-1.9-0.1
		c-0.7,0-1.3,0-1.9,0.1C306.1,39.1,305.6,39.2,305.1,39.3L305.1,39.3z"/>
	<path class="st0" d="M325.8,3.6h-3.5c-0.8,0-1.9,0.1-3.3,0.2s-3.1,0.4-5,0.6c0.1-0.4,0.1-0.7,0.2-1c0-0.3,0-0.7,0-1
		c0-0.4,0-0.7-0.1-1c0-0.3-0.1-0.6-0.2-0.9c2.6,0.1,5.1,0.2,7.5,0.2c2.4,0.1,4.8,0.1,7.1,0.1c2.7,0,5.2,0,7.6-0.1s4.7-0.1,7.1-0.2
		c-0.1,0.6-0.2,1-0.2,1.3s0,0.5,0,0.8s0,0.6,0.1,0.9c0,0.3,0.1,0.7,0.2,1c-2-0.3-3.7-0.5-5.1-0.6s-2.6-0.2-3.4-0.2h-3.2
		c-0.1,1.5-0.2,2.7-0.2,3.8c0,1-0.1,2-0.1,2.8c0,7.5,0.1,13.7,0.2,18.5s0.3,8.4,0.6,10.7c-0.4-0.1-0.9-0.2-1.5-0.2
		c-0.5,0-1.1-0.1-1.8-0.1c-0.7,0-1.3,0-1.8,0.1c-0.5,0-1,0.1-1.5,0.2c0.2-2.5,0.4-5.8,0.5-9.8s0.2-9,0.2-15.1c0-2.7,0-4.8-0.1-6.4
		C326,6.5,325.9,5,325.8,3.6L325.8,3.6z"/>
	<path class="st0" d="M358.6,39.3c0.2-1.5,0.3-3.2,0.4-5c0.1-1.9,0.2-4,0.2-6.3v-4.8c-2.1-3.9-4.3-7.8-6.6-11.6
		c-2.3-3.8-4.6-7.5-7-11.2c0.6,0.1,1.2,0.1,1.8,0.2c0.6,0,1.3,0.1,2,0.1s1.3,0,1.9-0.1c0.6,0,1.1-0.1,1.7-0.2
		c0.6,1.5,1.3,3.2,2.2,4.9c0.9,1.8,1.9,3.7,3.1,5.8l4.8,8.3c1.8-2.9,3.5-6,5.1-9.1c1.6-3.2,3.2-6.5,4.7-9.9c0.4,0.1,0.7,0.1,1.1,0.2
		c0.4,0,0.8,0.1,1.3,0.1s0.9,0,1.4-0.1c0.4,0,0.8-0.1,1.1-0.2c-1.4,2.2-2.8,4.4-4.1,6.5c-1.3,2.1-2.6,4.2-3.8,6.3l-5.3,8.8v7.3
		c0,1.7,0,3.3,0.1,5s0.1,3.3,0.3,5c-0.6-0.1-1.2-0.1-1.7-0.2c-0.5,0-1.1-0.1-1.6-0.1s-1,0-1.5,0.1S359.1,39.3,358.6,39.3L358.6,39.3
		z"/>
	<path d="M87.3,22.5c0,4-0.9,6.9-2.8,8.9c-2.1,2.2-4.9,3.3-8.3,3.3c-3.1,0-5.8-1.1-7.9-3.2c-1.3-1.3-2.2-3-2.5-5
		c-0.2-1.2-0.3-3.4-0.3-6.6s0.1-5.4,0.3-6.6c0.4-2,1.2-3.7,2.6-5c2.1-2.1,4.8-3.2,7.9-3.2c3.2,0,5.8,0.9,7.8,2.8
		c1.7,1.7,2.8,3.8,3.3,6.5h-5.8c-0.7-2.8-2.4-4.2-5.3-4.2c-1.5,0-2.7,0.5-3.7,1.6c-0.7,0.8-1.2,2.1-1.3,3.9
		c-0.1,0.5-0.1,1.9-0.1,4.2s0,3.8,0.1,4.2c0.2,1.8,0.6,3.1,1.3,4c0.9,1,2.1,1.5,3.7,1.5c1.7,0,3.1-0.5,4.1-1.6
		c0.9-1,1.3-2.2,1.3-3.9V23h-5.4v-4.8h11.1L87.3,22.5L87.3,22.5z M249.2,34h-19.3V4.9h19.3V10h-13.6v6.8h11.5v5.1h-11.5V29h13.6V34
		L249.2,34z M225.2,34h-6.6l-5.7-11.6h-4.1V34h-5.7V4.9h11.5c2.9,0,5.2,0.9,7,2.6c1.7,1.7,2.5,3.8,2.5,6.3c0,1.9-0.5,3.6-1.6,5
		c-1,1.2-2.2,2.1-3.7,2.7L225.2,34L225.2,34z M218.3,13.8L218.3,13.8c0-1.1-0.4-2.1-1.2-2.8c-0.8-0.7-1.8-1.1-3-1.1h-5.3v7.6h5.4
		c1.2,0,2.2-0.3,3-1.1C218,15.9,218.3,15,218.3,13.8L218.3,13.8z M199.5,34h-6l-1.7-5.1h-10.4l-1.8,5.1h-6l10.6-29.1h4.5L199.5,34
		L199.5,34z M190.3,24.1L190.3,24.1l-3.6-10.6L183,24.1H190.3L190.3,24.1z M170.5,24c0,3-1,5.5-3.1,7.4c-2.1,1.9-4.6,2.8-7.7,2.8
		c-3.1,0-5.6-0.9-7.7-2.8c-2.1-1.9-3.1-4.3-3.1-7.4V4.9h5.7v18.9c0,1.7,0.5,3,1.4,3.9s2.1,1.4,3.7,1.4c1.6,0,2.8-0.5,3.7-1.4
		c0.9-1,1.4-2.3,1.4-3.9V4.9h5.7L170.5,24L170.5,24z M144.4,32.2l-3,3l-2.6-2.5c-1.6,1.1-3.6,1.6-5.9,1.6c-3.2,0-5.8-1.1-7.9-3.2
		c-1.3-1.3-2.2-3-2.5-5c-0.2-1.2-0.3-3.4-0.3-6.6s0.1-5.4,0.3-6.6c0.4-2,1.2-3.7,2.5-5c2.1-2.1,4.8-3.2,7.9-3.2s5.7,1.1,7.9,3.2
		c1.3,1.3,2.2,3,2.5,5c0.2,1.2,0.4,3.4,0.4,6.6c0,2.8-0.1,4.7-0.2,5.8c-0.2,1.8-0.8,3.3-1.6,4.5L144.4,32.2L144.4,32.2z M138,19.5
		L138,19.5c0-2.2,0-3.6-0.1-4.2c-0.2-1.8-0.6-3.1-1.4-3.9c-0.9-1-2.1-1.6-3.7-1.6c-1.5,0-2.8,0.5-3.7,1.6c-0.7,0.8-1.2,2.1-1.3,3.9
		c-0.1,0.5-0.1,1.9-0.1,4.2s0,3.8,0.1,4.2c0.2,1.8,0.6,3.1,1.3,3.9c0.9,1,2.2,1.6,3.7,1.6c0.7,0,1.4-0.2,1.9-0.5l-2.5-2.5l3-3
		l2.2,2.2C137.8,24.3,138,22.4,138,19.5L138,19.5z M117.7,25.4c0,2.7-1,4.9-3.1,6.5c-2,1.6-4.6,2.3-7.8,2.3c-4.6,0-8.1-1.3-10.7-3.8
		l3.7-3.7c1.6,1.6,4,2.5,7.1,2.5c3.5,0,5.2-1.2,5.2-3.6c0-1.1-0.3-1.9-0.9-2.4c-0.6-0.5-1.4-0.9-2.6-1l-3.5-0.5
		c-5.2-0.7-7.8-3.4-7.8-8.1c0-2.6,0.9-4.8,2.8-6.4c1.8-1.6,4.3-2.4,7.4-2.4c3.9,0,7.1,1.1,9.5,3.4l-3.6,3.6c-1.4-1.3-3.4-2-6-2
		c-1.5,0-2.6,0.4-3.3,1c-0.8,0.7-1.2,1.6-1.2,2.6c0,0.8,0.3,1.6,0.9,2.1c0.6,0.6,1.5,0.9,2.7,1.1l3.5,0.5c2.5,0.4,4.4,1.1,5.6,2.2
		C117,20.7,117.7,22.7,117.7,25.4L117.7,25.4z"/>
	<path class="st0" d="M128.6,63c0.6,0,1.1,0.6,1.1,1.3c0,0.7-0.5,1.3-1.1,1.3h-54c-0.6,0-1.1-0.6-1.1-1.3c0-0.7,0.5-1.3,1.1-1.3
		H128.6L128.6,63z"/>
	<path class="st0" d="M368.7,63c0.6,0,1.1,0.6,1.1,1.3c0,0.7-0.5,1.3-1.1,1.3h-54c-0.6,0-1.1-0.6-1.1-1.3c0-0.7,0.5-1.3,1.1-1.3
		H368.7L368.7,63z"/>
	<path d="M154.7,60.6h1.1c1.3,0,2.3-0.2,2.8-0.5c0.6-0.4,0.8-1,0.8-1.9c0-1-0.3-1.6-0.8-2s-1.5-0.6-2.9-0.6h-1.1L154.7,60.6
		L154.7,60.6z M154.7,68.3h1c1,0,1.7,0,2.2-0.1s0.9-0.2,1.2-0.4c0.3-0.2,0.6-0.5,0.8-0.9s0.3-0.8,0.3-1.3c0-0.6-0.1-1-0.3-1.4
		c-0.2-0.4-0.6-0.7-1-1c-0.3-0.1-0.6-0.2-0.9-0.3c-0.3-0.1-0.8-0.1-1.4-0.1h-0.8h-1v5.5H154.7z M151.9,70.6V53.3h4.4
		c1.2,0,2.2,0.1,2.8,0.2c0.6,0.1,1.1,0.4,1.5,0.7c0.5,0.4,1,0.9,1.2,1.6c0.3,0.6,0.4,1.3,0.4,2.1c0,0.9-0.2,1.7-0.6,2.3
		c-0.4,0.6-1,1.1-1.9,1.3c1,0.2,1.8,0.6,2.4,1.4c0.6,0.8,0.9,1.7,0.9,2.9c0,0.7-0.1,1.4-0.4,2c-0.2,0.6-0.6,1.2-1,1.6
		c-0.5,0.5-1.1,0.8-1.8,1s-1.9,0.3-3.5,0.3L151.9,70.6L151.9,70.6z M178.3,63.8h4.8l-1.8-4c-0.1-0.3-0.2-0.5-0.3-0.9
		c-0.1-0.3-0.2-0.7-0.3-1.1c-0.1,0.4-0.2,0.7-0.3,1.1c-0.1,0.3-0.2,0.6-0.3,0.9L178.3,63.8L178.3,63.8z M186.1,70.6l-2-4.5h-6.9
		l-2,4.5h-3l8.4-18l8.4,18H186.1L186.1,70.6z M199.5,70.6V53.3h2.8v14.8h6.3v2.5H199.5L199.5,70.6z M219.7,70.6V53.3h2.8v14.8h6.3
		v2.5H219.7L219.7,70.6z M243.5,63.8h4.8l-1.8-4c-0.1-0.3-0.2-0.5-0.3-0.9c-0.1-0.3-0.2-0.7-0.3-1.1c-0.1,0.4-0.2,0.7-0.3,1.1
		c-0.1,0.3-0.2,0.6-0.3,0.9L243.5,63.8L243.5,63.8z M251.3,70.6l-2-4.5h-6.9l-2,4.5h-3l8.4-18l8.4,18H251.3L251.3,70.6z M267.5,60.7
		h0.5c1.5,0,2.5-0.2,3-0.5s0.7-1,0.7-1.8c0-1-0.3-1.6-0.8-2s-1.5-0.6-2.9-0.6h-0.5L267.5,60.7L267.5,60.7z M267.3,62.9v7.8h-2.6
		V53.3h3.9c1.2,0,2,0.1,2.7,0.2c0.6,0.1,1.2,0.4,1.6,0.7c0.5,0.4,1,1,1.2,1.6c0.3,0.7,0.4,1.4,0.4,2.2c0,1.4-0.3,2.5-1,3.3
		s-1.7,1.3-3,1.4l6,7.9h-3.2l-5.8-7.8L267.3,62.9L267.3,62.9z M287.1,70.6V53.3h2.8v17.4L287.1,70.6L287.1,70.6z"/>
	<path class="st1" d="M46,47H24.6c0-0.2,0-0.3,0-0.5c0-0.3,0-0.6,0-0.9c0-0.1,0-0.1,0-0.2v-4.3h0.1c1.1-4,3.4-6.8,6.2-8.7l6,3.4
		l0.8-1.3l-5.3-3c3.8-2.2,8.1-3.2,11.3-3.6l-0.2-1.5c-5.6,0.7-14.8,3.1-18.9,10.8v-2.3h0.1c0-0.5,0-1-0.1-1.4
		c0.4-4.2,2.5-7.6,6.4-10.4l4.4,2.4l0.7-1.4l-3.7-2c0.2-0.1,0.4-0.3,0.6-0.4c4.3-2.4,8.8-3.2,8.8-3.2l0-0.9l-0.1-0.8
		c-0.2,0-4.7,0.8-9.3,3.4c-2.7,1.5-4.9,3.4-6.4,5.4c-0.5,0.7-1,1.4-1.4,2.2v-6c0-2.5,1.8-4.9,3.9-6.9l3.3,1.8l0.7-1.4l-2.8-1.5
		c2.8-2.3,5.7-3.7,5.7-3.8L35,9.3l-0.3-0.6c-0.4,0.2-7.1,3.6-10.2,8.4v-6.4C24.7,7.5,26.9,6,27,6l-0.4-0.6l-0.4-0.7
		c-0.1,0-1.5,1-2.4,2.9c-0.9-1.9-2.3-2.9-2.4-2.9L20.6,6c0,0,2.2,1.5,2.5,4.7v6.5c-3.1-4.8-9.9-8.3-10.3-8.5l-0.7,1.4
		c0.1,0,2.9,1.5,5.7,3.8L15,15.5l0.7,1.4l3.3-1.8c2.2,2,4,4.4,4,6.9v6c-0.4-0.8-0.8-1.5-1.4-2.2c-1.6-2.1-3.7-3.9-6.4-5.4
		C10.6,17.8,6.1,17,5.9,17l-0.3,1.5c0,0,4.5,0.8,8.8,3.2c0.2,0.1,0.4,0.2,0.6,0.4l-3.7,2l0.7,1.4l4.4-2.4c3.9,2.8,6,6.2,6.4,10.4
		c0,0.5-0.1,0.9-0.1,1.4h0.1v2.3C18.7,29.5,9.5,27.1,3.9,26.4l-0.2,1.5c3.1,0.4,7.4,1.4,11.2,3.5l-5.1,3l0.8,1.3l6-3.5
		c2.9,2,5.2,4.8,6.3,8.8H23v4.3c0,0.1,0,0.1,0,0.2c0,0.3,0,0.6,0,0.9c0,0.2,0,0.3,0,0.5H1.4V24.8c0-12.3,10-22.3,22.3-22.3
		S46,12.5,46,24.8L46,47L46,47z M44.2,56.7c-6.2-0.4-11.3-2.9-14.4-4.9c-1.9-1.2-3.3-2.4-4.2-3.2h20.5
		C45.9,51.4,45.3,54.2,44.2,56.7L44.2,56.7z M37.7,65.2C37.7,65.2,37.7,65.1,37.7,65.2c-6.5-2.7-11.2-8.3-12.7-15
		c1,0.8,2.3,1.8,3.8,2.9c3.2,2.1,8.3,4.6,14.6,5.1C42,60.9,40.1,63.3,37.7,65.2L37.7,65.2z M24.6,70.1V53.9c0.6,1.6,1.4,3.1,2.4,4.5
		c2.4,3.4,5.6,6.2,9.3,7.9C32.9,68.5,28.9,69.9,24.6,70.1L24.6,70.1z M23,70.1c-4.4-0.1-8.4-1.5-11.8-3.8c3.8-1.7,7-4.4,9.4-7.9
		c1-1.4,1.8-2.9,2.4-4.5L23,70.1L23,70.1z M9.8,65.2c-2.4-1.9-4.4-4.3-5.8-7c6.3-0.6,11.4-3.1,14.7-5.2c1.6-1,2.9-2,3.8-2.9
		C21,56.8,16.4,62.5,9.8,65.2C9.9,65.2,9.8,65.2,9.8,65.2L9.8,65.2z M1.4,48.5H22c-1,0.9-2.4,2-4.2,3.2c-3.2,2-8.2,4.5-14.5,4.9
		C2.2,54.2,1.5,51.4,1.4,48.5L1.4,48.5z M40.6,8c-4.5-4.5-10.5-7-16.8-7S11.5,3.5,7,8S0,18.5,0,24.8v23c0,6.3,2.5,12.3,7,16.8
		s10.5,7,16.8,7s12.3-2.5,16.8-7s7-10.5,7-16.8v-23C47.6,18.5,45.1,12.5,40.6,8L40.6,8z"/>
	<path class="st0" d="M43.2,41.9c-3.1-1.6-5.4,0.3-7.5,1.8c-1.9,1.3-4.5,1.3-6.4,0l-1.5-1c-2.5-1.7-5.8-1.7-8.3,0l-1.5,1
		c-1.9,1.3-4.5,1.3-6.4,0c-2.1-1.5-4.1-3.2-7.4-1.9c-0.4,0.2-0.6,0.7-0.5,1.1c0.2,0.4,0.7,0.6,1.1,0.5c2.3-1,3.7,0.2,5.8,1.7
		c2.5,1.7,5.8,1.7,8.3,0l1.5-1c1.9-1.3,4.5-1.3,6.4,0c1.6,1.1,3,2.3,5.6,2.3c5,0,6.3-4.8,9.9-2.9c0.4,0.2,0.9,0.1,1.2-0.4
		C43.8,42.6,43.6,42.1,43.2,41.9L43.2,41.9z"/>
	<path class="st1" d="M18.3,36.9c0.6,2.6-4.3,2.2-6,0.8C13.8,36,17.7,34.3,18.3,36.9L18.3,36.9z"/>
	<path class="st1" d="M14.1,26.8c1.9-1.6,6.4-1.4,6,0.8C19.7,29.7,15.9,29,14.1,26.8L14.1,26.8z"/>
	<path class="st1" d="M10.8,30.7c0.6,2.6-4.3,2.2-6,0.8C6.3,29.8,10.2,28.1,10.8,30.7L10.8,30.7z"/>
	<path class="st1" d="M4.6,23.2c1-2.2,5.1-4,5.7-1.9C10.9,23.3,7.2,24.4,4.6,23.2L4.6,23.2z"/>
	<path class="st1" d="M21.4,11.2c2.2-1.5-1.4-4.6-3.6-4.9C17.6,8.5,19.2,12.6,21.4,11.2L21.4,11.2z"/>
	<path class="st1" d="M14.6,14.6c1.1-2.7-3.6-3.2-5.5-2.3C9.9,14.3,13.4,17.3,14.6,14.6L14.6,14.6z"/>
	<path class="st1" d="M26,22.4c-2.3-1.3,1.3-4.7,3.4-5C29.8,19.6,28.3,23.7,26,22.4L26,22.4z"/>
	<path class="st1" d="M21,22.1c2.2-1.7-1.3-4.7-3.4-5C17.2,19.3,18.8,23.8,21,22.1L21,22.1z"/>
	<path class="st1" d="M27.8,28c-1-2.5,4-2.7,5.8-1.6C32.5,28.3,28.8,30.5,27.8,28L27.8,28z"/>
	<path class="st1" d="M36.7,21.4c1-2.6,4.8,0.2,5.6,2.1C40.2,24.4,35.7,24.1,36.7,21.4L36.7,21.4z"/>
	<path class="st1" d="M28.7,36.6c-0.6,2.6,4.3,2.2,6,0.8C33.3,35.7,29.3,34,28.7,36.6L28.7,36.6z"/>
	<path class="st1" d="M36.6,31.2c-0.6,2.6,4.3,2.2,6,0.8C41.1,30.3,37.2,28.6,36.6,31.2L36.6,31.2z"/>
	<path class="st1" d="M33,14.4c-1.1-2.7,3.6-3.2,5.5-2.3C37.6,14.1,34.1,17.1,33,14.4L33,14.4z"/>
	<path class="st1" d="M26.4,11c-2.2-1.5,1.4-4.6,3.6-4.9C30.2,8.4,28.6,12.5,26.4,11L26.4,11z"/>
</g>
</svg>
