<?xml version="1.0" encoding="utf-8"?>
<!-- Generator: Adobe Illustrator 26.3.1, SVG Export Plug-In . SVG Version: 6.00 Build 0)  -->
<svg version="1.1" id="Layer_1" xmlns="http://www.w3.org/2000/svg" xmlns:xlink="http://www.w3.org/1999/xlink" x="0px" y="0px"
	 viewBox="0 0 303.2 303.2" style="enable-background:new 0 0 303.2 303.2;" xml:space="preserve">
<style type="text/css">
	.st0{fill:#006858;}
	.st1{fill:#FFFFFF;}
</style>
<g>
	<path class="st0" d="M197.9,294.1c-23.6-0.5-47.5-9.6-67-28.8C98.2,233,65.3,201,33.8,167.7C-2.6,129.4-0.5,66.3,37,29
		C51.1,15,72.3,14.7,87.1,28.9c15.3,14.8,30.4,29.8,45.1,45.2c13.8,14.4,13.9,33.4,1,48.6c-0.8,0.9-1.5,1.8-2.4,2.5
		c-11.3,10.2-9.7,13.7,0.2,23.2c8.5,8.1,16.7,16.7,25.1,25c7.4,7.4,10.8,7.5,18.2-0.2c7.8-8.1,16.5-13.9,28.2-14
		c10.2-0.1,18.8,3.8,25.9,10.9c14.8,14.6,29.6,29.2,44.1,44.1c15.6,16,14.6,37.8-2.1,52.8C250.8,284.8,227.1,294.1,197.9,294.1z
		 M201.3,274.2c21.9-0.3,40.9-7.8,56.8-22.9c6.9-6.5,7.6-15.4,1-22.1c-15-15.3-30.2-30.5-45.5-45.5c-6.5-6.4-14.8-6.1-21.4,0.1
		c-3.3,3.1-6.3,6.4-9.8,9.2c-9.8,7.9-24.8,8.5-34.1,0c-13.6-12.5-26.7-25.5-39.1-39.1c-8.9-9.7-8.1-24.7,0.3-34.9
		c2.4-2.9,5.2-5.6,7.8-8.4c7.4-7.7,7.5-15.8,0.1-23.3c-14.5-14.7-29.1-29.3-43.7-43.7c-7.6-7.5-16.2-7.1-23.5,0.8
		c-30.5,32.6-30,81.5,1.8,113.8c30.3,30.8,61.1,61.2,91.7,91.8C159.5,265.8,178.8,273.7,201.3,274.2z"/>
	<path class="st0" d="M186,9.4c54.3,3.3,97.4,42.9,105.3,96.7c0.7,4.8,1,9.6,1.2,14.4c0.2,6.4-3.3,10.7-8.9,11.2
		c-6,0.5-10.3-3-10.7-9.8c-0.8-11.7-2.1-23.2-6.7-34c-15.1-34.7-41.3-54.4-79.1-58.3c-2.5-0.3-5-0.3-7.5-0.6
		c-6-0.7-9.7-4.7-9.6-10.1c0.2-5.4,4.2-9.3,10.1-9.7C182,8.9,184,9.3,186,9.4z"/>
	<path class="st0" d="M233.5,118.4c0.5,6.9-1.9,11.5-6.8,12.8c-6.1,1.7-11.7-1.8-12.6-8.5c-1.1-8.5-2.8-16.6-8.9-23.3
		c-5.7-6.2-12.5-10.2-21-11.3c-2.1-0.3-4.3-0.5-6.4-0.9c-4.6-0.9-8-4.9-8.1-9.5c-0.1-4.6,2.9-8.8,7.7-9.6c8.3-1.5,16.2,0.8,23.7,4
		C220,80.5,232.2,98,233.5,118.4z"/>
</g>
</svg>
