<?xml version="1.0" encoding="utf-8"?>
<!-- Generator: Adobe Illustrator 26.3.1, SVG Export Plug-In . SVG Version: 6.00 Build 0)  -->
<svg version="1.1" id="Layer_1" xmlns="http://www.w3.org/2000/svg" xmlns:xlink="http://www.w3.org/1999/xlink" x="0px" y="0px"
	 viewBox="0 0 383.3 383.3" style="enable-background:new 0 0 383.3 383.3;" xml:space="preserve">
<style type="text/css">
	.st0{fill:#FFFFFF;}
</style>
<g>
	<path class="st0" d="M4.3,303.6c4-17.9,16.9-28.1,31.8-36.5c5.4-3.1,11.9-1.2,14.9,4c2.9,5.1,1.3,11.2-3.7,14.8
		c-5.1,3.5-10.5,6.8-15,10.9c-8.1,7.4-8,14.5-0.3,22.3c9.2,9.2,20.8,14.3,32.7,18.7c23.7,8.8,48.3,13.4,73.3,16.1
		c26.8,3,53.7,3.7,80.7,2.2c36-2.1,71.6-6.8,105.3-20.6c8.4-3.4,16.5-8.1,23.7-13.5c12.5-9.3,12.2-18.4,0.2-28.2
		c-3.2-2.6-6.7-4.9-10.2-7c-6.6-4-8.8-10.3-5.4-16c3.4-5.6,10.1-7.1,16.5-2.8c6.4,4.2,12.9,8.5,18.3,13.9
		c16.1,15.9,15.8,36.3-0.1,52.5c-9.1,9.2-20.1,15.3-31.8,20.4c-24.4,10.5-50,16.2-76.2,19.5c-14.7,1.9-29.6,2.7-44.4,4
		c-1.1,0.1-2.1,0.4-3.2,0.6c-13.2,0-26.3,0-39.5,0c-1.1-0.2-2.1-0.5-3.2-0.6c-19.5-2-39-3.4-58.4-6.2c-23.9-3.5-47.2-9.7-68.9-20.5
		c-17.1-8.5-32.5-18.9-37-39.4C4.3,309.5,4.3,306.5,4.3,303.6z"/>
	<path class="st0" d="M294,104.4c-0.2,13-3.9,25.1-8.2,37c-11.5,31.6-27.3,61.1-43.8,90.3c-8.2,14.5-16.8,28.9-25.4,43.2
		c-12.4,20.6-37.4,20.6-49.8,0.1c-22.2-36.7-43.7-73.7-61.1-113.1c-6.3-14.3-12.2-28.7-14.9-44.2c-3.4-19.8,0.5-38.6,9.3-56.4
		c19.5-39.5,61.7-61.9,105.1-56.1c42.8,5.7,77.5,38.1,86.3,80.8C292.8,92,293.2,98.3,294,104.4z M191.9,58.4
		c-22.6-0.1-41.1,18.1-41.3,40.5c-0.1,22.7,18.2,41.3,40.9,41.4c22.5,0.1,41-18.3,41.1-40.8C232.7,77,214.5,58.5,191.9,58.4z"/>
	<path class="st0" d="M140.2,273.6c-17.8,3.6-35.4,6-50.9,17.3c2.4,1.8,4.2,3.4,6.2,4.5c10.3,5.8,21.7,8.8,33.2,10.9
		c43,7.8,86.1,7.9,129-0.7c9.3-1.9,18.4-5.5,27.4-8.8c3-1.1,5.6-3.3,9.2-5.6c-2.7-1.9-4.6-3.6-6.7-4.7c-11.4-6.2-23.9-9-36.4-11.4
		c-2.5-0.5-5-0.9-8-1.4c3.8-6.5,7.4-12.7,11.1-18.8c0.4-0.7,2.1-1.1,3.1-0.9c13.3,2.6,26.5,5.7,38.5,12.1c4.3,2.3,8.4,5,12,8.3
		c10.6,9.9,10.5,23.4,0,33.4c-7.9,7.5-17.7,11.5-27.9,14.7c-18.9,6-38.4,8.8-58.2,10.3c-24.7,1.8-49.5,1.6-74.1-1.4
		c-20.2-2.4-40.3-5.7-58.9-14.9c-5.3-2.6-10.3-6.1-14.5-10.3c-8.9-8.8-8.7-21.3-0.2-30.5c7.2-7.7,16.6-12,26.3-15.1
		c8.1-2.6,16.4-4.4,24.7-6.6c2.3-0.6,3.8-0.2,5,2.1C133.2,261.9,136.7,267.5,140.2,273.6z"/>
</g>
</svg>
